<?xml version="1.0" standalone="no"?>
<svg xmlns="http://www.w3.org/2000/svg"
     version="1.1"
     width="100px"
     height="100px">
    <desc>jq-voronoi by hosuaby @ https://github.com/hosuaby</desc>
    <polygon points="40.833333333333336,19.166666666666668 38.43749999999999,0 0,0 0,42.25000000000001 19.72222222222222,40.27777777777778" style="fill:rgb(175, 94, 107)" />
<polygon points="38.43749999999999,0 40.833333333333336,19.166666666666668 68.92857142857143,33.214285714285715 80,0" style="fill:rgb(144, 234, 220)" />
<polygon points="80,0 68.92857142857143,33.214285714285715 76.13636363636364,49.43181818181818 100,59.37500000000006 100,0" style="fill:rgb(205, 65, 97)" />
<polygon points="68.92857142857143,33.214285714285715 40.833333333333336,19.166666666666668 19.72222222222222,40.27777777777778 48.46153846153846,63.26923076923077 76.13636363636364,49.43181818181818" style="fill:rgb(104, 121, 118)" />
<polygon points="19.72222222222222,40.27777777777778 0,42.25000000000001 0,100 34.687500000000014,100 48.46153846153846,63.26923076923077" style="fill:rgb(211, 139, 181)" />
<polygon points="76.13636363636364,49.43181818181818 48.46153846153846,63.26923076923077 34.687500000000014,100 100,100 100,59.37500000000006" style="fill:rgb(79, 215, 50)" />
    <circle cx="20" cy="15" r="3" fill="white" />
<circle cx="60" cy="10" r="3" fill="white" />
<circle cx="90" cy="20" r="3" fill="white" />
<circle cx="45" cy="40" r="3" fill="white" />
<circle cx="25" cy="65" r="3" fill="white" />
<circle cx="65" cy="80" r="3" fill="white" />
</svg>
